<svg xmlns="http://www.w3.org/2000/svg" version="1.1" xmlns:xlink="http://www.w3.org/1999/xlink" xmlns:svgjs="http://svgjs.dev/svgjs" viewBox="0 0 800 800" opacity="0.68"><g stroke-width="1" stroke="hsl(0, 0%, 27%)" fill="none"><path d="M1135.1752308799714 -162.39150218965187C1253.3523794705532 166.95320807893165 927.5678283024786 1046.4401202642673 623.3536954058106 1219.3202462962258C319.1395625091427 1392.2003723281841 -206.87545843345094 996.7778130323361 -325.0526070240326 667.4331027637525C-443.2297556146143 338.08839249516905 -248.11075072564637 -188.65423696101698 56.10338217102162 -361.53436299297545C360.3175150676893 -534.414489024934 1016.9980822893897 -491.73621245823546 1135.1752308799714 -162.39150218965187C1253.3523794705532 166.95320807893165 927.5678283024786 1046.4401202642673 623.3536954058106 1219.3202462962258 "></path><path d="M1115.8285134747728 -147.5917691833247C1230.8957371024444 173.08597502555926 913.6844635966877 1029.428494784965 617.4759657762479 1197.7591438160825C321.2674679558079 1366.0897928472 -190.90505243566486 981.0730903749266 -305.9722760633365 660.3953461660426C-421.0394996910081 339.7176019571589 -231.05520545701302 -173.16337935544334 65.15329236342677 -341.4940283865608C361.36179018386656 -509.8246774176783 1000.7612898471014 -468.2695133922087 1115.8285134747728 -147.5917691833247C1230.8957371024444 173.08597502555926 913.6844635966877 1029.428494784965 617.4759657762479 1197.7591438160825 "></path><path d="M1096.481796069574 -132.791914106685C1208.4390947343359 179.21886404249938 899.8010988908966 1012.4169913759754 611.5982361466849 1176.198163406252C323.3953734024732 1339.9793354365283 -174.93464643787865 965.36848978783 -286.8919451026403 653.3577116386455C-398.84924376740184 341.3469334894612 -213.9996601883796 -157.6723996795572 74.20320255583204 -321.4535717098336C362.4060653000438 -485.23474374011016 984.5244974048126 -444.80269225586943 1096.481796069574 -132.791914106685C1208.4390947343359 179.21886404249938 899.8010988908966 1012.4169913759754 611.5982361466849 1176.198163406252 "></path><path d="M1077.1350176292192 -117.99218110035781C1185.9823913310706 185.351630989127 885.9176731499495 995.405365896673 605.7204454819657 1154.6370609261087C325.5232178139821 1313.8687559555437 -158.96430147524882 949.6637671304206 -267.81167517710037 646.3199550409358C-376.6590488789519 342.97614295145104 -196.9441759549025 -142.18154207398356 83.25305171308105 -301.41323710341896C363.4502793810648 -460.6449321328545 968.2876439273675 -421.33599318984267 1077.1350176292192 -117.99218110035781C1185.9823913310706 185.351630989127 885.9176731499495 995.405365896673 605.7204454819657 1154.6370609261087 "></path><path d="M1057.7883002240205 -103.1924175764525C1163.525748962962 191.48442845333273 872.0343084441583 978.3937709349489 599.8427158524028 1133.0759889635433C327.6511232606474 1287.7582069921377 -142.99389547746273 933.9590749905894 -248.73134421640418 639.2822289608041C-354.4687929553457 344.60538293101877 -179.88863068626915 -126.6906539508318 92.30296190548643 -281.37287197942624C364.4945544972419 -436.05509000802067 952.0508514850792 -397.86926360623784 1057.7883002240205 -103.1924175764525C1163.525748962962 191.48442845333273 872.0343084441583 978.3937709349489 599.8427158524028 1133.0759889635433 "></path><path d="M1038.4416438539781 -88.39262353496906C1141.0691676300094 197.6172564351167 858.1510047735237 961.3822064908029 593.9650472579963 1111.5149475185565C329.77908974246884 1261.64768854631 -127.02342844452033 918.2544133683364 -229.6509522205518 632.2445333982505C-332.2784759965832 346.2346534281651 -162.8330243824795 -111.19973531010191 101.35293313304783 -261.3324763378553C365.5388906485754 -411.4652173656088 935.8141200779467 -374.4025035050548 1038.4416438539781 -88.39262353496906C1141.0691676300094 197.6172564351167 858.1510047735237 961.3822064908029 593.9650472579963 1111.5149475185565 "></path><path d="M1019.0949569663576 -73.59282949348562C1118.612555779479 203.75008441690045 844.267670585311 944.3706420466567 588.0873481460117 1089.9539060735692C331.90702570671226 1235.537170100482 -111.05299192915606 902.5497517460831 -210.5705907422775 625.2068378356971C-310.0881895553989 347.8639239253107 -145.77744859626802 -95.70881666937203 110.40287384303133 -241.29208069628442C366.5831962823306 -386.87534472319686 919.5773581532362 -350.9357434038718 1019.0949569663576 -73.59282949348562C1118.612555779479 203.75008441690045 844.267670585311 944.3706420466567 588.0873481460117 1089.9539060735692 "></path><path d="M999.7482395611589 -58.79309648715844C1096.1559134113704 209.88285136352806 830.3843058795198 927.3590165673547 582.2096185164487 1068.3928035934262C334.03493115337756 1209.4265906194976 -95.08258593136998 886.8450290886738 -191.4902597815813 618.1690812379873C-287.8979336317927 349.49313338730065 -128.7219033276346 -80.21795906379839 119.4527840354366 -221.25174608986975C367.62747139850774 -362.2855331159412 903.3405657109474 -327.46904433784505 999.7482395611589 -58.79309648715844C1096.1559134113704 209.88285136352806 830.3843058795198 927.3590165673547 582.2096185164487 1068.3928035934262 "></path><path d="M980.4015221559603 -43.993302445675C1073.6992710432614 216.01567934531204 816.500941173729 910.3474521232088 576.3318888868857 1046.831762148439C336.16283660004274 1183.3160721736697 -79.11217993358383 871.1403674664207 -172.40992882088517 611.1313856754339C-265.70767770818645 351.12240388444684 -111.66635805900125 -64.7270404230685 128.50269422784186 -201.21135044829884C368.67174651468497 -337.6956604735293 887.1037732686589 -304.00228423666204 980.4015221559603 -43.993302445675C1073.6992710432614 216.01567934531204 816.500941173729 910.3474521232088 576.3318888868857 1046.831762148439 "></path><path d="M961.0548047507616 -29.19350840419156C1051.242628675153 222.14850732709579 802.6175764679379 893.3358876790626 570.454159257323 1025.270720703452C338.29074204670803 1157.2055537278416 -63.14177393579769 855.4357058441678 -153.32959786018898 604.0936901128803C-243.51742178458022 352.7516743815928 -94.6108127903679 -49.236121782338614 137.55260442024712 -181.170954806728C369.7160216308621 -313.10578783111737 870.8669808263703 -280.535524135479 961.0548047507616 -29.19350840419156C1051.242628675153 222.14850732709579 802.6175764679379 893.3358876790626 570.454159257323 1025.270720703452 "></path><path d="M941.7080263104067 -14.393714362708124C1028.785925271888 228.28133530887976 788.7341507269907 876.3243232349166 564.576368592604 1003.7096792584648C340.41858645821696 1131.0950352820134 -47.17142897316785 839.7310442219145 -134.24932793464905 597.0559945503267C-221.3272268961303 354.3809448787388 -77.55532855689074 -33.74520314160873 146.60245357749614 -161.13055916515708C370.76023571188307 -288.51591518870543 854.6301273489253 -257.068764034296 941.7080263104067 -14.393714362708124C1028.785925271888 228.28133530887976 788.7341507269907 876.3243232349166 564.576368592604 1003.7096792584648 "></path><path d="M922.361369940364 0.40601864361906337C1006.3293439389354 234.41410225550737 774.8508470563561 859.3126977556144 558.6986999981973 982.1485767783217C342.5465529400385 1104.9844558010293 -31.200961940225454 824.0263215645055 -115.16893593879661 590.0182379526168C-199.13690993736782 356.0101543407287 -60.49972225310114 -18.25434553603509 155.65242480505765 -141.09022455874242C371.80457186321644 -263.9261035814498 838.393395941793 -233.60206496826925 922.361369940364 0.40601864361906337C1006.3293439389354 234.41410225550737 774.8508470563561 859.3126977556144 558.6986999981973 982.1485767783217 "></path><path d="M903.0146525351656 15.2058126851025C983.8727015708266 240.54693023729124 760.9674823505652 842.3011333114682 552.8209703686343 960.5875353333349C344.6744583867037 1078.8739373552012 -15.23055594243931 808.3216599422522 -96.08860497810048 582.9805423900634C-176.9466540137616 357.6394248378747 -43.44417698446773 -2.7634268953052015 164.7023349974629 -121.04982891717151C372.84884697939356 -239.33623093903788 822.1566034995044 -210.1353048670863 903.0146525351656 15.2058126851025C983.8727015708266 240.54693023729124 760.9674823505652 842.3011333114682 552.8209703686343 960.5875353333349 "></path><path d="M883.6679656475449 30.00560672658594C961.416089720296 246.6797582190751 747.0841481623522 825.2895688673225 546.9432712566496 939.0264938883477C346.802394350947 1052.763418909373 0.7398805729249034 792.6169983199991 -77.00824349982616 575.9428468275098C-154.75636757257723 359.26869533502065 -26.388601198256254 12.727491745424686 173.7522757074463 -101.0094332756006C373.8931526131489 -214.74635829662594 805.919841574794 -186.66854476590328 883.6679656475449 30.00560672658594C961.416089720296 246.6797582190751 747.0841481623522 825.2895688673225 546.9432712566496 939.0264938883477 "></path><path d="M864.3212482423464 44.805309215335C938.9594473521875 252.81249464812458 733.2007834565611 808.2779128704419 541.0655416270868 917.465360890626C348.9302997976123 1026.6528089108106 16.710286570711048 776.9122451450116 -57.92791253912998 568.9050597122218C-132.56611164897106 360.89787427943236 -9.333055929622901 28.2183188334202 182.80218589985157 -80.96912918676412C374.93742772932615 -190.15657720694844 789.6830491325054 -163.20187621745464 864.3212482423464 44.805309215335C938.9594473521875 252.81249464812458 733.2007834565611 808.2779128704419 541.0655416270868 917.465360890626 "></path><path d="M844.9745308371475 59.60510325681844C916.5028049840785 258.94532262990845 719.3174187507702 791.266348426296 535.1878119975239 895.9043194456392C351.0582052442776 1000.5422904649827 32.68069256849719 761.2075835227586 -38.84758157843385 561.8673641496684C-110.37585572536483 362.52714477657855 7.722489339010508 43.709237474150086 191.85209609225694 -60.92873354519321C375.98170284550326 -165.5667045645365 773.4462566902166 -139.73511611627163 844.9745308371475 59.60510325681844C916.5028049840785 258.94532262990845 719.3174187507702 791.266348426296 535.1878119975239 895.9043194456392 "></path><path d="M825.6277523967929 74.40489729830188C894.0461015808137 265.0781506116923 705.4339930098231 774.2547839821498 529.3100213328048 874.3432780006522C353.1860496557865 974.4317720191546 48.65103753112703 745.5029219005055 -19.76731165289391 554.829668587115C-88.18566083691485 364.1564152737245 24.77797357248761 59.200156114879974 200.90194524950584 -40.8883379036223C377.02591692652413 -140.97683192212457 757.2094032127716 -116.26835601508861 825.6277523967929 74.40489729830188C894.0461015808137 265.0781506116923 705.4339930098231 774.2547839821498 529.3100213328048 874.3432780006522 "></path><path d="M806.2810960267502 89.20469133978531C871.5895202478612 271.21097859347617 691.5506893391885 757.2432195380038 523.4323527383982 852.7822365556653C355.31401613760806 948.3212535733264 64.62150456406943 729.7982602782522 -0.6869196570414715 547.7919730245615C-65.99534387815237 365.7856857708705 41.83357987627721 74.69107475560986 209.95191647706747 -20.84794226205139C378.0702530778576 -116.3869592797127 740.9726718056395 -92.8015959139056 806.2810960267502 89.20469133978531C871.5895202478612 271.21097859347617 691.5506893391885 757.2432195380038 523.4323527383982 852.7822365556653 "></path><path d="M786.9343786215516 104.0044243461125C849.1328778797524 277.3437455401038 677.6673246333976 740.2315940587018 517.5546231088354 831.2211340755221C357.44192158427336 922.2106740923423 80.59191056185557 714.0935376208431 18.393411303654716 540.7542164268517C-43.805087954546195 367.4148952328603 58.88912514491062 90.1819323611835 219.00182666947262 -0.8076076556367298C379.11452819403473 -91.79714767245702 724.7358793633507 -69.33489684787884 786.9343786215516 104.0044243461125C849.1328778797524 277.3437455401038 677.6673246333976 740.2315940587018 517.5546231088354 831.2211340755221 "></path><path d="M767.5876612163529 118.80421838759594C826.6762355116439 283.47657352188776 663.7839599276065 723.2200296145556 511.6768934792725 809.6600926305348C359.56982703093854 896.1001556465139 96.56231655964172 698.3888759985898 37.47374226435085 533.7165208642981C-21.614832030939965 369.0441657300064 75.94467041354397 105.67285100191339 228.051736861878 19.232787985934124C380.15880331021185 -67.20727503004508 708.4990869210619 -45.86813674669588 767.5876612163529 118.80421838759594C826.6762355116439 283.47657352188776 663.7839599276065 723.2200296145556 511.6768934792725 809.6600926305348 "></path><path d="M748.240882775998 133.60401242907938C804.2195321083789 289.6094015036715 649.9005341866592 706.2084651704095 505.7991028145534 788.099051185548C361.6976714424475 869.989637200686 112.53266152227161 682.684214376337 56.554012189890784 526.6788253017446C0.5753628575100151 370.6734362271525 93.00015464702113 121.16376964264327 237.1015860191269 39.273183627505034C381.20301739123283 -42.617402387633206 692.2622334436172 -22.40137664551287 748.240882775998 133.60401242907938C804.2195321083789 289.6094015036715 649.9005341866592 706.2084651704095 505.7991028145534 788.099051185548 "></path><path d="M728.8942264059556 148.40374543540656C781.7629507754264 295.74216845029923 636.0172305160245 689.1968396911072 499.9214342201467 766.5379487054045C363.825637924269 843.8790577197017 128.50312855521395 666.9794917189275 75.63440418574322 519.6410687040349C22.765679816272495 372.3026456891422 110.05576095081074 136.6546272482169 246.15155724668853 59.313518233919694C382.2473535425663 -18.027590780377523 676.0255020364849 1.065322420513894 728.8942264059556 148.40374543540656C781.7629507754264 295.74216845029923 636.0172305160245 689.1968396911072 499.9214342201467 766.5379487054045 "></path><path d="M709.5474784831788 163.20353947689C759.3062778897395 301.874996432083 622.1338352926555 672.1852752469612 494.04367407300583 744.9769072604174C365.9535128533562 817.7685392738738 144.47350403542197 651.2748300966743 94.71470462886128 512.6033731414814C44.955905222300544 373.93191618628816 127.11127570186602 152.1455458889468 255.20143692151566 79.3539138754906C383.2915981411653 6.5622818620344106 659.7886790766181 24.532082521696907 709.5474784831788 163.20353947689C759.3062778897395 301.874996432083 622.1338352926555 672.1852752469612 494.04367407300583 744.9769072604174 "></path><path d="M690.2007610779801 178.00333351837344C736.8496355216307 308.00782441386696 608.2504705868645 655.1737108028153 488.16594444344287 723.4158658154306C368.08141830002137 791.6580208280457 160.4439100332081 635.5701684744213 113.79503558955741 505.5656775789279C67.14616114590677 375.56118668343436 144.16682097049937 167.6364645296767 264.25134711392093 99.39430951706152C384.3358732573424 31.152154504446287 643.5518866343294 47.99884262287992 690.2007610779801 178.00333351837344C736.8496355216307 308.00782441386696 608.2504705868645 655.1737108028153 488.16594444344287 723.4158658154306 "></path><path d="M670.8540131552033 192.80312755985688C714.392962635944 314.1406523956508 594.3670753634954 638.1621463586692 482.288184296302 701.8548243704433C370.2092932291084 765.5475023822178 176.41428551341608 619.8655068521682 132.87533603267548 498.52798201637427C89.33638655193488 377.1904571805803 161.2223357215546 183.12738317040657 273.30122678874807 119.43470515863237C385.38011785594153 55.74202714685822 627.3150636744626 71.46560272406293 670.8540131552033 192.80312755985688C714.392962635944 314.1406523956508 594.3670753634954 638.1621463586692 482.288184296302 701.8548243704433 "></path><path d="M651.5073262675828 207.6028910837622C691.9363507854133 320.27344985985656 580.4837411752826 621.150551396945 476.41048518431717 680.2937524078784C372.33722919335185 739.4369534188115 192.38472202878035 604.160814712337 151.9556975109498 491.49025593624265C111.52667299311918 378.8196971601483 178.27791150776613 198.61827129355834 282.35116749873146 139.47507028262515C386.4244234896968 80.33186927169197 611.0783017497522 94.93233230766782 651.5073262675828 207.6028910837622C691.9363507854133 320.27344985985656 580.4837411752826 621.150551396945 476.41048518431717 680.2937524078784 "></path><path d="M632.1606088623842 222.40268512524563C669.4797084173047 326.4062778416404 566.6003764694915 604.1389869527991 470.5327555547543 658.7327109628911C374.46513464001714 713.3264349729834 208.3551280265665 588.456153090084 171.03602847164592 484.45256037368904C133.7169289167254 380.44896765729436 195.3334567763995 214.10918993428822 291.4010776911367 159.51546592419606C387.468698605874 104.9217419141039 594.8415093074636 118.39909240885083 632.1606088623842 222.40268512524563C669.4797084173047 326.4062778416404 566.6003764694915 604.1389869527991 470.5327555547543 658.7327109628911 "></path><path d="M612.8138609396074 237.20244864915094C647.0230355316178 332.53907530584615 552.7169812461225 587.1273919910749 464.65499540761334 637.1716390003261C376.5930095691042 687.2158860095773 224.32550350677445 572.7514609502527 190.11632891476398 477.41483429355753C155.9071543227535 382.0782076368623 212.38897152745477 229.60007805744 300.45095736596386 179.55583104818885C388.512943204473 129.5115840389377 578.6046863475967 141.86582199245566 612.8138609396074 237.20244864915094C647.0230355316178 332.53907530584615 552.7169812461225 587.1273919910749 464.65499540761334 637.1716390003261 "></path><path d="M593.4671893107758 252.00221217305625C624.5664389398762 338.6718727700519 538.8336623166988 570.1157970293509 458.7773115544177 615.610567037761C378.7209607921367 661.1053370461711 240.29595528092779 557.0467688104216 209.19670565182736 470.3771082134258C178.09745602272693 383.70744761643016 229.4445625724553 245.09096618059175 309.5009133347363 199.59619617218164C389.5572640970174 154.10142616377146 562.3679396816754 165.33255157606055 593.4671893107758 252.00221217305625C624.5664389398762 338.6718727700519 538.8336623166988 570.1157970293509 458.7773115544177 615.610567037761 "></path><path d="M574.120441387999 266.8020062145397C602.1097660541894 344.80470075183575 524.9502670933296 553.1042325852047 452.8995514072767 594.049525592774C380.84883572122374 634.994818600343 256.2663307611358 541.3421071881685 228.27700609494542 463.3394126508723C200.28768142875498 385.33671811357624 246.50007732351054 260.58188482132164 318.55079300956345 219.63659181375255C390.6015086956164 178.6912988061834 546.1311167218087 188.79931167724357 574.120441387999 266.8020062145397C602.1097660541894 344.80470075183575 524.9502670933296 553.1042325852047 452.8995514072767 594.049525592774 "></path><path d="M554.7737239828003 281.6018002560231C579.6531236860807 350.9375287336196 511.0669023875387 536.0926681410588 447.02182177771385 572.4884841477868C382.97674116788903 608.884300154515 272.2367367589219 525.6374455659153 247.35733705564155 456.3017170883188C222.4779373523612 386.9659886107222 263.55562259214395 276.0728034620515 327.60070320196877 239.67698745532346C391.64578381179354 203.28117144859533 529.89432427952 212.26607177842658 554.7737239828003 281.6018002560231C579.6531236860807 350.9375287336196 511.0669023875387 536.0926681410588 447.02182177771385 572.4884841477868 "></path><path d="M535.4270370951798 296.40156377992844C557.1965118355502 357.0703261978254 497.1835681993258 519.0810731793347 441.1441226657291 550.9274121852217C385.10467713213234 582.7737511911089 288.20717327428616 509.9327534260841 266.43769853391586 449.2639910081871C244.66822379354556 388.59522859029016 280.6111983783554 291.5636915852033 336.65064391195216 259.7173525793162C392.6900894455489 227.87101357342908 513.6575623548094 235.73280136203147 535.4270370951798 296.40156377992844C557.1965118355502 357.0703261978254 497.1835681993258 519.0810731793347 441.1441226657291 550.9274121852217 "></path><path d="M516.080289172403 311.2013578214119C534.7398389498633 363.20315417960927 483.3001729759567 502.0695087351886 435.26636251858804 529.3663707402346C387.2325520612195 556.6632327452808 304.1775487544942 494.22809180383103 285.5179989770339 442.2262954456336C266.85844919957367 390.22449908743624 297.6667131294107 307.0546102259332 345.7005235867793 279.7577482208871C393.73433404414794 252.46088621584101 497.42073939494276 259.1995614632145 516.080289172403 311.2013578214119C534.7398389498633 363.20315417960927 483.3001729759567 502.0695087351886 435.26636251858804 529.3663707402346 "></path><path d="M496.73357176720424 326.0011213453172C512.2831965817545 369.335951643815 469.4168082701658 485.0579137734645 429.38863288902525 507.8052987776696C389.36045750788475 530.5526837818746 320.14795475228027 478.52339966399984 304.59832993773006 435.18856936550196C289.04870512317984 391.85373906700414 314.72225839804406 322.54549834908494 354.75043377918456 299.7981133448799C394.7786091603251 277.0507283406748 481.1839469526541 282.66629104681937 496.73357176720424 326.0011213453172C512.2831965817545 369.335951643815 469.4168082701658 485.0579137734645 429.38863288902525 507.8052987776696 "></path><path d="M477.3868543620056 340.8009153868006C489.82655421364575 375.46877962559887 455.5334435643748 468.04634932931845 423.5109032594624 486.24425733268254C391.48836295455 504.4421653360466 336.1183607500664 462.81873804174666 323.67866089842624 428.15087380294847C311.2389610467861 393.48300956415017 331.7778036666774 338.0364169898148 363.8003439715898 319.8385089864508C395.82288427650224 301.6406009830867 464.9471545103654 306.1330511480024 477.3868543620056 340.8009153868006C489.82655421364575 375.46877962559887 455.5334435643748 468.04634932931845 423.5109032594624 486.24425733268254 "></path><path d="M458.04015221559604 355.6006636519169C467.36992710432617 381.60156183101554 441.6500941173729 451.03473910880524 417.63318888868855 464.68317011132825C393.6162836600043 478.3316011138513 352.0887820066416 447.11403064312645 342.7590071179115 421.11313246402773C333.42923222918137 395.11223428492906 348.8333641940999 353.5272898541775 372.8502694227842 339.8788588516545C396.8671746514685 326.23042784913144 448.7103773268659 329.59976547281815 458.04015221559604 355.6006636519169C467.36992710432617 381.60156183101554 441.6500941173729 451.03473910880524 417.63318888868855 464.68317011132825 "></path><path d="M438.6934348103973 370.40044243461125C444.9132847362174 387.7343745540104 427.76672941158193 434.02315940587016 411.7554592591257 443.1221134075522C395.7441891066695 452.22106740923425 368.05918800442777 431.40935376208427 361.8393380786077 414.07542164268517C355.6194881527876 396.741489523286 365.88890946273324 369.01819323611835 381.9001796151895 359.9192392344363C397.91144976764565 350.8202852327543 432.47358488457724 353.0665103152121 438.6934348103973 370.40044243461125C444.9132847362174 387.7343745540104 427.76672941158193 434.02315940587016 411.7554592591257 443.1221134075522 "></path><path d="M419.34671740519866 385.2002212173056C422.4566423681087 393.8671872770052 413.883364705791 417.0115797029351 405.87772962956285 421.5610567037761C397.87209455333476 426.1105337046171 384.02959400221386 415.70467688104213 380.9196690393038 407.03771082134256C377.80974407639377 398.37074476164304 382.94445473136665 384.5090966180592 390.95008980759474 379.95961961721815C398.9557248838228 375.41014261637713 416.2367924422886 376.53325515760605 419.34671740519866 385.2002212173056C422.4566423681087 393.8671872770052 413.883364705791 417.0115797029351 405.87772962956285 421.5610567037761 "></path></g></svg>